<svg width="50" height="50" viewBox="0 0 50 50" fill="none" xmlns="http://www.w3.org/2000/svg">
<path d="M0 5C0 2.23858 2.23858 0 5 0H42.619C45.3805 0 47.619 2.23858 47.619 5V24.1905C47.619 25.295 46.7236 26.1905 45.619 26.1905H44.8571C43.7526 26.1905 42.8571 25.295 42.8571 24.1905V6.7619C42.8571 5.65733 41.9617 4.7619 40.8571 4.7619H6.76191C5.65734 4.7619 4.7619 5.65734 4.7619 6.7619V40.8571C4.7619 41.9617 5.65734 42.8571 6.7619 42.8571H24.1905C25.295 42.8571 26.1905 43.7526 26.1905 44.8571V45.619C26.1905 46.7236 25.295 47.619 24.1905 47.619H5C2.23857 47.619 0 45.3805 0 42.619V5ZM23.8095 11.9048H33.3333V16.6667H28.5714V28.5714C28.5706 30.0875 28.0875 31.564 27.1918 32.7873C26.2962 34.0106 25.0346 34.9172 23.5895 35.3758C22.1445 35.8345 20.5909 35.8215 19.1538 35.3386C17.7166 34.8558 16.4704 33.9282 15.5954 32.6901C14.7204 31.452 14.262 29.9676 14.2867 28.4517C14.3113 26.9358 14.8176 25.467 15.7324 24.258C16.6471 23.0489 17.9228 22.1623 19.3749 21.7264C20.827 21.2905 22.3801 21.328 23.8095 21.8333V11.9048ZM23.8095 28.5714C23.8095 27.94 23.5587 27.3344 23.1122 26.8878C22.6656 26.4413 22.06 26.1905 21.4286 26.1905C20.7971 26.1905 20.1915 26.4413 19.745 26.8878C19.2985 27.3344 19.0476 27.94 19.0476 28.5714C19.0476 29.2029 19.2985 29.8085 19.745 30.255C20.1915 30.7015 20.7971 30.9524 21.4286 30.9524C22.06 30.9524 22.6656 30.7015 23.1122 30.255C23.5587 29.8085 23.8095 29.2029 23.8095 28.5714ZM42.8571 30.9524V38.0952H50V42.8571H42.8571V50H38.0952V42.8571H30.9524V38.0952H38.0952V30.9524H42.8571Z" fill="white"/>
</svg>
