<svg width="50" height="39" viewBox="0 0 50 39" fill="none" xmlns="http://www.w3.org/2000/svg">
<path d="M21.4903 6.41731L15.5791 14.0174C15.3818 14.2712 15.1025 14.4486 14.789 14.5196C14.4754 14.5905 14.147 14.5504 13.8597 14.4062L7.95684 11.4534C8.31556 10.668 8.42138 9.79046 8.25967 8.94223C8.09797 8.09399 7.67672 7.31696 7.05417 6.71855C6.43163 6.12015 5.63855 5.72995 4.78459 5.6019C3.93063 5.47384 3.05798 5.61427 2.2873 6.00376C1.51662 6.39324 0.885987 7.01255 0.482599 7.77605C0.0792112 8.53954 -0.0770038 9.4095 0.0355539 10.2656C0.148112 11.1218 0.523881 11.9218 1.11091 12.5551C1.69793 13.1884 2.46721 13.6236 3.31237 13.8007L8.0124 36.1342C8.17697 36.9143 8.60504 37.6141 9.2247 38.1159C9.84436 38.6177 10.6178 38.8909 11.4152 38.8897H38.5876C39.3845 38.8903 40.1573 38.6168 40.7764 38.115C41.3955 37.6133 41.8231 36.9139 41.9876 36.1342L46.6876 13.8007C47.5328 13.6236 48.3021 13.1884 48.8891 12.5551C49.4761 11.9218 49.8519 11.1218 49.9644 10.2656C50.077 9.4095 49.9208 8.53954 49.5174 7.77605C49.114 7.01255 48.4834 6.39324 47.7127 6.00376C46.942 5.61427 46.0694 5.47384 45.2154 5.6019C44.3614 5.72995 43.5684 6.12015 42.9458 6.71855C42.3233 7.31696 41.902 8.09399 41.7403 8.94223C41.5786 9.79046 41.6844 10.668 42.0432 11.4534L36.1376 14.4062C35.8502 14.5504 35.5218 14.5905 35.2082 14.5196C34.8947 14.4486 34.6154 14.2712 34.4181 14.0174L28.507 6.41453C28.9104 5.78493 29.1369 5.05838 29.1628 4.31109C29.1887 3.5638 29.0131 2.82331 28.6542 2.16728C28.2954 1.51125 27.7667 0.96387 27.1235 0.582543C26.4803 0.201216 25.7464 0 24.9986 0C24.2509 0 23.5169 0.201216 22.8737 0.582543C22.2305 0.96387 21.7018 1.51125 21.343 2.16728C20.9842 2.82331 20.8085 3.5638 20.8344 4.31109C20.8603 5.05838 21.0869 5.78771 21.4903 6.41731ZM24.9986 30.5563C24.4514 30.5563 23.9096 30.4486 23.4041 30.2392C22.8986 30.0298 22.4392 29.7229 22.0523 29.3359C21.6654 28.949 21.3585 28.4897 21.1491 27.9842C20.9397 27.4786 20.8319 26.9368 20.8319 26.3897C20.8319 25.8425 20.9397 25.3007 21.1491 24.7951C21.3585 24.2896 21.6654 23.8303 22.0523 23.4434C22.4392 23.0564 22.8986 22.7495 23.4041 22.5401C23.9096 22.3307 24.4514 22.223 24.9986 22.223C26.1037 22.223 27.1635 22.6619 27.9449 23.4434C28.7263 24.2248 29.1653 25.2846 29.1653 26.3897C29.1653 27.4947 28.7263 28.5545 27.9449 29.3359C27.1635 30.1174 26.1037 30.5563 24.9986 30.5563Z" fill="#FFC700"/>
</svg>
